<?xml version="1.0" standalone="no"?>
<!DOCTYPE svg PUBLIC "-//W3C//DTD SVG 20010904//EN"
 "http://www.w3.org/TR/2001/REC-SVG-20010904/DTD/svg10.dtd">
<svg version="1.0" xmlns="http://www.w3.org/2000/svg"
 width="51.000000pt" height="45.000000pt" viewBox="0 0 51.000000 45.000000"
 preserveAspectRatio="xMidYMid meet">

<g transform="translate(0.000000,45.000000) scale(0.100000,-0.100000)"
fill="#0f58c3" stroke="none">
<path d="M185 356 c-33 -18 -61 -40 -63 -49 -3 -15 12 -17 138 -17 126 0 141
2 138 17 -3 17 -112 83 -138 83 -8 0 -42 -15 -75 -34z m113 -13 l37 -17 -37
-4 c-21 -2 -55 -2 -75 0 l-38 4 35 17 c43 20 34 20 78 0z"/>
<path d="M150 210 c0 -43 3 -50 20 -50 17 0 20 7 20 50 0 43 -3 50 -20 50 -17
0 -20 -7 -20 -50z"/>
<path d="M240 210 c0 -43 3 -50 20 -50 17 0 20 7 20 50 0 43 -3 50 -20 50 -17
0 -20 -7 -20 -50z"/>
<path d="M330 210 c0 -43 3 -50 20 -50 17 0 20 7 20 50 0 43 -3 50 -20 50 -17
0 -20 -7 -20 -50z"/>
<path d="M120 105 c0 -13 22 -15 140 -15 118 0 140 2 140 15 0 13 -22 15 -140
15 -118 0 -140 -2 -140 -15z"/>
</g>
</svg>
