<?xml version="1.0" encoding="UTF-8"?>
<svg version="1.1" xmlns="http://www.w3.org/2000/svg" width="1200" height="1200">
<path d="M0 0 C396 0 792 0 1200 0 C1200 396 1200 792 1200 1200 C804 1200 408 1200 0 1200 C0 804 0 408 0 0 Z " fill="#FEFEFE" transform="translate(0,0)"/>
<path d="M0 0 C0.96957619 -0.00526326 1.93915238 -0.01052652 2.93810967 -0.01594928 C4.52734406 -0.00935455 4.52734406 -0.00935455 6.1486842 -0.0026266 C7.28326702 -0.00583308 8.41784984 -0.00903955 9.58681396 -0.0123432 C13.41638779 -0.02069266 17.24580724 -0.01470158 21.07538384 -0.00884742 C23.83761742 -0.01075911 26.59984385 -0.01567257 29.36207378 -0.02043998 C35.38207247 -0.02921511 41.40203714 -0.03050944 47.42204064 -0.02693671 C56.37402017 -0.02163789 65.32596667 -0.02771674 74.27794261 -0.03601964 C91.19526206 -0.05127837 108.11256658 -0.05296277 125.02989147 -0.05049662 C138.09225478 -0.04866546 151.15461317 -0.05041982 164.21697587 -0.05472106 C166.09223324 -0.05532345 167.96749061 -0.05592465 169.84274798 -0.05652466 C172.66843361 -0.05743189 175.49411924 -0.05834056 178.31980487 -0.05925701 C204.59979338 -0.06768949 230.87978004 -0.07202022 257.15976971 -0.06785029 C258.64654653 -0.06761573 258.64654653 -0.06761573 260.16335925 -0.06737643 C265.18730944 -0.06657062 270.21125962 -0.06572485 275.2352098 -0.06486312 C276.73192225 -0.06460649 276.73192225 -0.06460649 278.25887131 -0.06434468 C280.27668347 -0.06399802 282.29449562 -0.06364949 284.31230778 -0.06329909 C315.71102063 -0.05794161 347.1097054 -0.06587185 378.50841302 -0.08433264 C413.76918467 -0.10503975 449.02993893 -0.11577779 484.29071701 -0.11175716 C488.04910578 -0.1113618 491.80749456 -0.11100026 495.56588334 -0.11065978 C496.95404174 -0.11052368 496.95404174 -0.11052368 498.37024375 -0.11038483 C512.35279341 -0.10921789 526.33532552 -0.11587455 540.3178708 -0.1264717 C556.21708269 -0.13850902 572.11625589 -0.14009965 588.01546834 -0.12768153 C596.91653741 -0.12104083 605.81751404 -0.12271179 614.71857577 -0.13627005 C620.66181502 -0.14449428 626.60498479 -0.14184346 632.54821835 -0.13029478 C635.93616717 -0.12401806 639.32378692 -0.12413542 642.71174899 -0.13415811 C646.36070239 -0.14420658 650.00916551 -0.13589082 653.65809888 -0.12288111 C654.71056498 -0.13019046 655.76303107 -0.13749981 656.84739009 -0.14503065 C664.22704627 -0.09024077 670.13160078 0.68603686 675.90465325 5.689349 C679.75503042 10.19979082 682.21477089 13.27283019 682.22095442 19.37268829 C682.22422661 20.21736285 682.22749881 21.06203741 682.23087016 21.93230817 C682.22938653 22.86228677 682.22790291 23.79226538 682.22637433 24.75042516 C682.22872656 25.7408769 682.23107879 26.73132864 682.2335023 27.75179407 C682.24021091 31.10307543 682.23973352 34.45431818 682.23932427 37.80560571 C682.24262173 40.21962695 682.24634705 42.63364764 682.25046575 45.04766762 C682.25945235 51.00724545 682.26371551 56.96681071 682.26598472 62.92639355 C682.26894412 70.06209824 682.27763997 77.19779304 682.286399 84.33349256 C682.30725482 101.58211536 682.31771485 118.83073989 682.3265286 136.07937237 C682.33073336 144.23679972 682.33595556 152.39422634 682.34121313 160.55165307 C682.35910401 188.46726126 682.37410084 216.38286965 682.38153332 244.29848272 C682.38200808 246.05141437 682.38248397 247.80434602 682.38296099 249.55727767 C682.38331555 250.86124117 682.38331555 250.86124117 682.38367728 252.19154736 C682.38487849 256.59600664 682.38609394 261.0004659 682.38731927 265.40492517 C682.38755942 266.27900825 682.38779957 267.15309134 682.38804699 268.05366179 C682.39594165 296.39977477 682.41937655 324.74584592 682.45187521 353.09194063 C682.48616003 383.05057537 682.5058832 413.00918563 682.50917757 442.96784031 C682.50959512 446.25555709 682.51007468 449.54327385 682.51060075 452.83099061 C682.51072394 453.64053791 682.51084713 454.45008521 682.51097405 455.28416424 C682.51330773 468.32149134 682.52897698 481.35876994 682.54944259 494.39607975 C682.56968157 507.49669345 682.57518703 520.59724878 682.56567196 533.69787522 C682.56044952 541.48363872 682.56636938 549.26920814 682.58820663 557.05494377 C682.60327224 562.86477094 682.59749661 568.6744547 682.58353611 574.48428885 C682.58114544 576.83762669 682.58555851 579.19098303 682.59736476 581.54429247 C682.61239754 584.73788619 682.60287007 587.93049829 682.58713788 591.12406713 C682.59736008 592.0423399 682.60758229 592.96061268 682.61811426 593.90671191 C682.53862237 601.27684566 680.59853846 607.00856836 675.27965325 612.24794275 C670.08918989 616.33501939 664.05788823 619.21086901 658.20616692 622.22499353 C654.58513675 624.09091761 650.97999142 625.9871098 647.37340325 627.88075525 C646.65503289 628.257091 645.93666253 628.63342675 645.19652337 629.02116662 C639.25664995 632.14180662 633.40929723 635.4079642 627.59215325 638.751849 C617.139141 644.740702 606.51716233 650.38519672 595.86803216 656.01430017 C594.50651283 656.73405431 593.14502162 657.45386164 591.7835595 658.173724 C591.11989373 658.52461587 590.45622796 658.87550775 589.7724511 659.23703271 C581.36165497 663.68951131 573.01486587 668.25822449 564.67223138 672.83680993 C560.19096882 675.29455007 555.70394342 677.74171908 551.21715325 680.189349 C550.31327874 680.6828988 549.40940423 681.17644861 548.47813958 681.68495446 C543.71913246 684.28169597 538.95477941 686.86800563 534.181997 689.439349 C524.46852461 694.67527084 514.79716051 699.96261569 505.21715325 705.439349 C494.77502412 711.40048679 484.16579182 717.02347992 473.52824944 722.62486535 C464.82738873 727.20651305 456.15037267 731.81135862 447.57994622 736.63417321 C441.23466607 740.19816889 434.82052049 743.62940383 428.40465325 747.064349 C420.23803392 751.43966004 412.13307511 755.89989849 404.09215325 760.501849 C393.0246654 766.82570607 381.76540364 772.7672089 370.48644036 778.70180017 C361.51404547 783.42491239 352.58446629 788.21199087 343.7379052 793.1683529 C337.28518099 796.7684235 332.45236628 798.48010199 325.09215325 797.251849 C320.36897434 795.39103691 315.97987275 793.04210618 311.53697747 790.595599 C308.88077934 789.13567145 306.20864567 787.70810648 303.5335595 786.283099 C293.64109134 780.99236734 283.83556898 775.5617197 274.09215325 770.001849 C264.17433758 764.34332441 254.11371601 758.98226602 244.0151574 753.65648156 C234.24239155 748.49951013 224.57222881 743.19852749 214.978872 737.7127865 C209.24107562 734.43993425 203.45502362 731.29454226 197.59215325 728.251849 C190.77321426 724.71297837 184.07366922 721.00287277 177.40465325 717.189349 C168.0635879 711.85342537 158.60634836 706.76924492 149.09215325 701.751849 C138.88460602 696.36809447 128.76798177 690.87025511 118.7523095 685.1346615 C110.94591949 680.68490877 103.032489 676.45571703 95.09215325 672.251849 C86.22831724 667.55905035 77.42167689 662.79909778 68.71715325 657.814349 C58.9287744 652.21095852 48.99229728 646.91848032 39.01753777 641.65767175 C29.16401219 636.45743067 19.39929397 631.13217589 9.73497552 625.58534509 C5.03682646 622.8924774 0.31414738 620.31195833 -4.51819831 617.86854821 C-11.55001704 614.29635616 -16.24842127 611.23297112 -20.02848619 604.15288365 C-21.30692691 599.93527257 -21.18463782 595.9068604 -21.16511565 591.52279454 C-21.16862173 590.53172349 -21.1721278 589.54065243 -21.17574012 588.51954892 C-21.18508951 585.17815981 -21.18012165 581.83694364 -21.17527229 578.49554712 C-21.17900676 576.08392372 -21.18360746 573.67230153 -21.18900293 571.26068127 C-21.19870737 566.00672932 -21.20214453 560.75282816 -21.20009071 555.49887162 C-21.19704402 547.68599471 -21.20535732 539.87315866 -21.21583996 532.06028968 C-21.23519648 517.2952965 -21.24080879 502.53031719 -21.24195407 487.76531281 C-21.24287264 476.36437179 -21.2469866 464.96343621 -21.25335532 453.56249696 C-21.25515037 450.28249479 -21.25693 447.00249261 -21.25870508 443.72249043 C-21.25914718 442.90710611 -21.25958927 442.09172178 -21.26004477 441.25162885 C-21.27235568 418.31178773 -21.28024564 395.3719485 -21.27935821 372.43210393 C-21.27932705 371.56696251 -21.27929589 370.70182108 -21.27926379 369.81046325 C-21.27909757 365.42541976 -21.27889949 361.04037626 -21.27869438 356.65533277 C-21.27865449 355.78442434 -21.2786146 354.91351591 -21.2785735 354.01621632 C-21.27849262 352.25502677 -21.27840903 350.49383722 -21.27832271 348.73264767 C-21.27709706 321.32830099 -21.2921119 293.92400379 -21.31946784 266.51967126 C-21.35017879 235.74160345 -21.36740094 204.96356816 -21.3655414 174.18548405 C-21.36539213 170.90453881 -21.36529472 167.62359357 -21.36523277 164.34264833 C-21.36520946 163.53477718 -21.36518615 162.72690604 -21.36516213 161.89455395 C-21.36510055 148.88523514 -21.37788053 135.87595923 -21.39509729 122.86665318 C-21.41203843 109.79540485 -21.41403955 96.72421939 -21.40087865 83.65296616 C-21.39347936 75.88497036 -21.39717654 68.11716537 -21.41676333 60.34918973 C-21.43014574 54.55265197 -21.42267912 48.75629191 -21.40701689 42.95976678 C-21.40393046 40.61187434 -21.40764065 38.26396138 -21.41873704 35.91609313 C-21.43280139 32.72986278 -21.42231559 29.54462301 -21.40562469 26.35842687 C-21.41556105 25.44233013 -21.42549741 24.5262334 -21.43573487 23.58237615 C-21.35964047 16.73307833 -19.67867745 11.46278927 -15.161753 6.2284115 C-14.60358894 5.78239587 -14.04542487 5.33638025 -13.47034675 4.876849 C-12.91476081 4.41536462 -12.35917487 3.95388025 -11.786753 3.4784115 C-7.98063851 0.99375463 -4.52254169 0.00194935 0 0 Z " fill="#FEFEFE" transform="translate(273.9078467488289,205.74815100431442)"/>
<path d="M0 0 C0.96957619 -0.00526326 1.93915238 -0.01052652 2.93810967 -0.01594928 C4.52734406 -0.00935455 4.52734406 -0.00935455 6.1486842 -0.0026266 C7.28326702 -0.00583308 8.41784984 -0.00903955 9.58681396 -0.0123432 C13.41638779 -0.02069266 17.24580724 -0.01470158 21.07538384 -0.00884742 C23.83761742 -0.01075911 26.59984385 -0.01567257 29.36207378 -0.02043998 C35.38207247 -0.02921511 41.40203714 -0.03050944 47.42204064 -0.02693671 C56.37402017 -0.02163789 65.32596667 -0.02771674 74.27794261 -0.03601964 C91.19526206 -0.05127837 108.11256658 -0.05296277 125.02989147 -0.05049662 C138.09225478 -0.04866546 151.15461317 -0.05041982 164.21697587 -0.05472106 C166.09223324 -0.05532345 167.96749061 -0.05592465 169.84274798 -0.05652466 C172.66843361 -0.05743189 175.49411924 -0.05834056 178.31980487 -0.05925701 C204.59979338 -0.06768949 230.87978004 -0.07202022 257.15976971 -0.06785029 C258.64654653 -0.06761573 258.64654653 -0.06761573 260.16335925 -0.06737643 C265.18730944 -0.06657062 270.21125962 -0.06572485 275.2352098 -0.06486312 C276.73192225 -0.06460649 276.73192225 -0.06460649 278.25887131 -0.06434468 C280.27668347 -0.06399802 282.29449562 -0.06364949 284.31230778 -0.06329909 C315.71102063 -0.05794161 347.1097054 -0.06587185 378.50841302 -0.08433264 C413.76918467 -0.10503975 449.02993893 -0.11577779 484.29071701 -0.11175716 C488.04910578 -0.1113618 491.80749456 -0.11100026 495.56588334 -0.11065978 C496.95404174 -0.11052368 496.95404174 -0.11052368 498.37024375 -0.11038483 C512.35279341 -0.10921789 526.33532552 -0.11587455 540.3178708 -0.1264717 C556.21708269 -0.13850902 572.11625589 -0.14009965 588.01546834 -0.12768153 C596.91653741 -0.12104083 605.81751404 -0.12271179 614.71857577 -0.13627005 C620.66181502 -0.14449428 626.60498479 -0.14184346 632.54821835 -0.13029478 C635.93616717 -0.12401806 639.32378692 -0.12413542 642.71174899 -0.13415811 C646.36070239 -0.14420658 650.00916551 -0.13589082 653.65809888 -0.12288111 C654.71056498 -0.13019046 655.76303107 -0.13749981 656.84739009 -0.14503065 C664.22704627 -0.09024077 670.13160078 0.68603686 675.90465325 5.689349 C679.75503042 10.19979082 682.21477089 13.27283019 682.22095442 19.37268829 C682.22422661 20.21736285 682.22749881 21.06203741 682.23087016 21.93230817 C682.22938653 22.86228677 682.22790291 23.79226538 682.22637433 24.75042516 C682.22872656 25.7408769 682.23107879 26.73132864 682.2335023 27.75179407 C682.24021091 31.10307543 682.23973352 34.45431818 682.23932427 37.80560571 C682.24262173 40.21962695 682.24634705 42.63364764 682.25046575 45.04766762 C682.25945235 51.00724545 682.26371551 56.96681071 682.26598472 62.92639355 C682.26894412 70.06209824 682.27763997 77.19779304 682.286399 84.33349256 C682.30725482 101.58211536 682.31771485 118.83073989 682.3265286 136.07937237 C682.33073336 144.23679972 682.33595556 152.39422634 682.34121313 160.55165307 C682.35910401 188.46726126 682.37410084 216.38286965 682.38153332 244.29848272 C682.38200808 246.05141437 682.38248397 247.80434602 682.38296099 249.55727767 C682.38331555 250.86124117 682.38331555 250.86124117 682.38367728 252.19154736 C682.38487849 256.59600664 682.38609394 261.0004659 682.38731927 265.40492517 C682.38755942 266.27900825 682.38779957 267.15309134 682.38804699 268.05366179 C682.39594165 296.39977477 682.41937655 324.74584592 682.45187521 353.09194063 C682.48616003 383.05057537 682.5058832 413.00918563 682.50917757 442.96784031 C682.50959512 446.25555709 682.51007468 449.54327385 682.51060075 452.83099061 C682.51072394 453.64053791 682.51084713 454.45008521 682.51097405 455.28416424 C682.51330773 468.32149134 682.52897698 481.35876994 682.54944259 494.39607975 C682.56968157 507.49669345 682.57518703 520.59724878 682.56567196 533.69787522 C682.56044952 541.48363872 682.56636938 549.26920814 682.58820663 557.05494377 C682.60327224 562.86477094 682.59749661 568.6744547 682.58353611 574.48428885 C682.58114544 576.83762669 682.58555851 579.19098303 682.59736476 581.54429247 C682.61239754 584.73788619 682.60287007 587.93049829 682.58713788 591.12406713 C682.59736008 592.0423399 682.60758229 592.96061268 682.61811426 593.90671191 C682.53862237 601.27684566 680.59853846 607.00856836 675.27965325 612.24794275 C670.08918989 616.33501939 664.05788823 619.21086901 658.20616692 622.22499353 C654.58513675 624.09091761 650.97999142 625.9871098 647.37340325 627.88075525 C646.65503289 628.257091 645.93666253 628.63342675 645.19652337 629.02116662 C639.25664995 632.14180662 633.40929723 635.4079642 627.59215325 638.751849 C617.139141 644.740702 606.51716233 650.38519672 595.86803216 656.01430017 C594.50651283 656.73405431 593.14502162 657.45386164 591.7835595 658.173724 C591.11989373 658.52461587 590.45622796 658.87550775 589.7724511 659.23703271 C581.36165497 663.68951131 573.01486587 668.25822449 564.67223138 672.83680993 C560.19096882 675.29455007 555.70394342 677.74171908 551.21715325 680.189349 C550.31327874 680.6828988 549.40940423 681.17644861 548.47813958 681.68495446 C543.71913246 684.28169597 538.95477941 686.86800563 534.181997 689.439349 C524.46852461 694.67527084 514.79716051 699.96261569 505.21715325 705.439349 C494.77502412 711.40048679 484.16579182 717.02347992 473.52824944 722.62486535 C464.82738873 727.20651305 456.15037267 731.81135862 447.57994622 736.63417321 C441.23466607 740.19816889 434.82052049 743.62940383 428.40465325 747.064349 C420.23803392 751.43966004 412.13307511 755.89989849 404.09215325 760.501849 C393.0246654 766.82570607 381.76540364 772.7672089 370.48644036 778.70180017 C361.51404547 783.42491239 352.58446629 788.21199087 343.7379052 793.1683529 C337.28518099 796.7684235 332.45236628 798.48010199 325.09215325 797.251849 C320.36897434 795.39103691 315.97987275 793.04210618 311.53697747 790.595599 C308.88077934 789.13567145 306.20864567 787.70810648 303.5335595 786.283099 C293.64109134 780.99236734 283.83556898 775.5617197 274.09215325 770.001849 C264.17433758 764.34332441 254.11371601 758.98226602 244.0151574 753.65648156 C234.24239155 748.49951013 224.57222881 743.19852749 214.978872 737.7127865 C209.24107562 734.43993425 203.45502362 731.29454226 197.59215325 728.251849 C190.77321426 724.71297837 184.07366922 721.00287277 177.40465325 717.189349 C168.0635879 711.85342537 158.60634836 706.76924492 149.09215325 701.751849 C138.88460602 696.36809447 128.76798177 690.87025511 118.7523095 685.1346615 C110.94591949 680.68490877 103.032489 676.45571703 95.09215325 672.251849 C86.22831724 667.55905035 77.42167689 662.79909778 68.71715325 657.814349 C58.9287744 652.21095852 48.99229728 646.91848032 39.01753777 641.65767175 C29.16401219 636.45743067 19.39929397 631.13217589 9.73497552 625.58534509 C5.03682646 622.8924774 0.31414738 620.31195833 -4.51819831 617.86854821 C-11.55001704 614.29635616 -16.24842127 611.23297112 -20.02848619 604.15288365 C-21.30692691 599.93527257 -21.18463782 595.9068604 -21.16511565 591.52279454 C-21.16862173 590.53172349 -21.1721278 589.54065243 -21.17574012 588.51954892 C-21.18508951 585.17815981 -21.18012165 581.83694364 -21.17527229 578.49554712 C-21.17900676 576.08392372 -21.18360746 573.67230153 -21.18900293 571.26068127 C-21.19870737 566.00672932 -21.20214453 560.75282816 -21.20009071 555.49887162 C-21.19704402 547.68599471 -21.20535732 539.87315866 -21.21583996 532.06028968 C-21.23519648 517.2952965 -21.24080879 502.53031719 -21.24195407 487.76531281 C-21.24287264 476.36437179 -21.2469866 464.96343621 -21.25335532 453.56249696 C-21.25515037 450.28249479 -21.25693 447.00249261 -21.25870508 443.72249043 C-21.25914718 442.90710611 -21.25958927 442.09172178 -21.26004477 441.25162885 C-21.27235568 418.31178773 -21.28024564 395.3719485 -21.27935821 372.43210393 C-21.27932705 371.56696251 -21.27929589 370.70182108 -21.27926379 369.81046325 C-21.27909757 365.42541976 -21.27889949 361.04037626 -21.27869438 356.65533277 C-21.27865449 355.78442434 -21.2786146 354.91351591 -21.2785735 354.01621632 C-21.27849262 352.25502677 -21.27840903 350.49383722 -21.27832271 348.73264767 C-21.27709706 321.32830099 -21.2921119 293.92400379 -21.31946784 266.51967126 C-21.35017879 235.74160345 -21.36740094 204.96356816 -21.3655414 174.18548405 C-21.36539213 170.90453881 -21.36529472 167.62359357 -21.36523277 164.34264833 C-21.36520946 163.53477718 -21.36518615 162.72690604 -21.36516213 161.89455395 C-21.36510055 148.88523514 -21.37788053 135.87595923 -21.39509729 122.86665318 C-21.41203843 109.79540485 -21.41403955 96.72421939 -21.40087865 83.65296616 C-21.39347936 75.88497036 -21.39717654 68.11716537 -21.41676333 60.34918973 C-21.43014574 54.55265197 -21.42267912 48.75629191 -21.40701689 42.95976678 C-21.40393046 40.61187434 -21.40764065 38.26396138 -21.41873704 35.91609313 C-21.43280139 32.72986278 -21.42231559 29.54462301 -21.40562469 26.35842687 C-21.41556105 25.44233013 -21.42549741 24.5262334 -21.43573487 23.58237615 C-21.35964047 16.73307833 -19.67867745 11.46278927 -15.161753 6.2284115 C-14.60358894 5.78239587 -14.04542487 5.33638025 -13.47034675 4.876849 C-12.91476081 4.41536462 -12.35917487 3.95388025 -11.786753 3.4784115 C-7.98063851 0.99375463 -4.52254169 0.00194935 0 0 Z M20.09215325 41.251849 C20.09215325 220.771849 20.09215325 400.291849 20.09215325 585.251849 C29.99215325 590.531849 39.89215325 595.811849 50.09215325 601.251849 C61.59215325 607.751849 61.59215325 607.751849 67.12340325 610.908099 C74.6833765 615.18112735 82.36686516 619.22065063 90.04094476 623.28361779 C98.2535965 627.63459671 106.40101765 632.07018069 114.46715325 636.689349 C124.25682133 642.29347749 134.19449833 647.58695001 144.17079705 652.8480404 C153.94300676 658.00474232 163.61261465 663.30547755 173.2054345 668.7909115 C178.94323088 672.06376374 184.72928288 675.20915573 190.59215325 678.251849 C197.41109224 681.79071962 204.11063728 685.50082522 210.77965325 689.314349 C220.12070915 694.65026723 229.57785926 699.73465153 239.09215325 704.751849 C249.55946981 710.27160634 259.93153721 715.91601904 270.2054345 721.7909115 C276.68748135 725.48828592 283.24715079 728.99716012 289.87022942 732.4339779 C298.31253448 736.84044497 306.57641595 741.55785754 314.84996575 746.27138025 C315.7307177 746.76718591 316.61146966 747.26299157 317.51891106 747.77382165 C319.23002826 748.7566588 320.92279649 749.77217585 322.59508294 750.81972009 C323.76539056 751.53442468 323.76539056 751.53442468 324.95934075 752.26356775 C325.97810296 752.9107174 325.97810296 752.9107174 327.01744622 753.57094079 C330.0225984 754.55721632 331.29889604 753.65976142 334.09215325 752.251849 C335.12839837 751.73002038 336.16464349 751.20819177 337.23228997 750.67055017 C338.41359827 750.04806517 339.5933684 749.42265514 340.77184075 748.79481775 C341.41215234 748.45585977 342.05246392 748.11690179 342.71217889 747.76767236 C344.79883734 746.66133769 346.88314278 745.55066274 348.96715325 744.439349 C349.68588616 744.05714196 350.40461907 743.67493493 351.14513177 743.28114587 C360.94361118 738.06805457 370.65290779 732.7257609 380.2847802 727.20985681 C389.85268991 721.75981366 399.58676153 716.63220049 409.32066888 711.48720056 C410.68332912 710.76687978 412.04595968 710.04650283 413.4085595 709.32606775 C414.40467751 708.79942025 414.40467751 708.79942025 415.42091912 708.26213342 C422.92358565 704.29036657 430.37130597 700.21985847 437.8148095 696.13856775 C441.52314926 694.10563652 445.24007075 692.08951077 448.963247 690.08388025 C458.731244 684.82078742 468.45664936 679.50419744 478.09215325 674.001849 C488.71893942 667.94188467 499.504735 662.20402943 510.31871575 656.48817712 C511.68202604 655.76752893 513.04530762 655.04682643 514.4085595 654.32606775 C515.40473794 653.79939004 515.40473794 653.79939004 516.42104119 653.26207238 C523.92366188 649.29031611 531.37134577 645.21983664 538.8148095 641.13856775 C542.52314926 639.10563652 546.24007075 637.08951077 549.963247 635.08388025 C559.73123906 629.82079009 569.45675566 624.50437911 579.09215325 619.001849 C589.7094029 612.94496619 600.48350781 607.20294828 611.30113763 601.51454431 C621.32124432 596.23450334 631.18315427 590.75684843 641.09215325 585.251849 C641.09215325 405.731849 641.09215325 226.211849 641.09215325 41.251849 C436.16215325 41.251849 231.23215325 41.251849 20.09215325 41.251849 Z " fill="#020202" transform="translate(273.9078467488289,205.74815100431442)"/>
<path d="M0 0 C1.77280275 -0.00597315 1.77280275 -0.00597315 3.58141971 -0.01206696 C5.53081702 -0.00332844 5.53081702 -0.00332844 7.5195961 0.00558662 C8.91310684 0.00471466 10.30661726 0.00296385 11.70012593 0.00040829 C15.53346077 -0.00407109 19.36668418 0.00394652 23.20000482 0.01396441 C27.33221579 0.02258812 31.46442029 0.01967952 35.59663773 0.01815987 C42.75734068 0.01711033 49.91800723 0.02339409 57.07870102 0.03463554 C67.4319024 0.05087829 77.78508615 0.05609729 88.1382989 0.05861153 C104.93502465 0.06299056 121.73173099 0.0763053 138.5284462 0.09521675 C154.84647906 0.11357017 171.16450666 0.12772931 187.48254776 0.13623238 C188.48811438 0.13675782 189.49368099 0.13728327 190.52971932 0.13782464 C195.57426876 0.14043468 200.61881824 0.14296211 205.66336775 0.14544845 C247.52384422 0.16618742 289.38429699 0.2019684 331.24475479 0.24609566 C331.24475479 13.44609566 331.24475479 26.64609566 331.24475479 40.24609566 C228.94475479 40.24609566 126.64475479 40.24609566 21.24475479 40.24609566 C21.57475479 133.30609566 21.90475479 226.36609566 22.24475479 322.24609566 C42.48650993 333.41468037 42.48650993 333.41468037 62.73108292 344.57812691 C74.19324881 350.89765334 85.64258197 357.23968445 97.08118057 363.60180855 C105.29292311 368.16714494 113.51628578 372.71101244 121.74475479 377.24609566 C132.2021508 383.00964183 142.64568288 388.79754863 153.08069229 394.60156441 C161.29262226 399.16693806 169.51613841 403.71090289 177.74475479 408.24609566 C189.67010968 414.81885245 201.57875723 421.42118828 213.47912979 428.03906441 C214.95542862 428.84996529 214.95542862 428.84996529 216.46155167 429.677248 C218.2632431 430.69283301 220.04314123 431.7485285 221.79358292 432.85009956 C222.56637589 433.32753609 223.33916885 433.80497261 224.13537979 434.29687691 C225.11812881 434.93556709 225.11812881 434.93556709 226.12073135 435.58716011 C230.17090481 436.84364496 233.5510774 434.5930215 237.15954971 432.78833199 C238.17122208 432.22396431 239.18289444 431.65959663 240.22522354 431.07812691 C241.37506729 430.44004097 242.52491104 429.80195503 243.70959854 429.14453316 C244.9505265 428.44929658 246.19141075 427.75398199 247.43225479 427.05859566 C248.73146787 426.33546114 250.0309516 425.61281268 251.33069229 424.89062691 C254.00328825 423.40459211 256.67428357 421.91574219 259.34387589 420.42431831 C264.043107 417.79915871 268.74898203 415.18604604 273.45495987 412.57299995 C275.66219823 411.34726603 277.86906224 410.12085776 280.07556534 408.89380074 C288.28891478 404.32684631 296.51442154 399.78233252 304.74475479 395.24609566 C318.59586084 387.61134236 332.42318275 379.93419329 346.24475479 372.24609566 C360.06632783 364.55799747 373.89375973 356.88105134 387.74475479 349.24609566 C397.54460304 343.8441193 407.3371432 338.42923047 417.11975479 332.99609566 C418.23672745 332.37605659 419.3537001 331.75601753 420.50452042 331.11718941 C421.55059464 330.53582222 422.59666885 329.95445503 423.67444229 329.35547066 C424.64349503 328.81728706 425.61254776 328.27910347 426.61096573 327.72461128 C428.88248313 326.4494621 431.13192955 325.14409626 433.37756729 323.82422066 C436.24475479 322.24609566 436.24475479 322.24609566 438.24475479 322.24609566 C438.24475479 280.99609566 438.24475479 239.74609566 438.24475479 197.24609566 C451.44475479 197.24609566 464.64475479 197.24609566 478.24475479 197.24609566 C478.33512112 215.62243565 478.40877512 233.99859517 478.45200348 252.37510109 C478.47261049 260.90802667 478.50069538 269.44080419 478.5465126 277.97363472 C478.58643751 285.4126602 478.61220113 292.85157842 478.62110877 300.29070807 C478.626314 304.22808521 478.63850896 308.16515555 478.66767502 312.10243416 C478.69493375 315.81247951 478.7031789 319.52209325 478.69718552 323.23222923 C478.69880138 325.23461871 478.72026927 327.23696176 478.74243546 329.2392292 C478.70981537 336.39252624 478.15889775 341.18984731 474.24475479 347.24609566 C472.09509659 349.3256855 472.09509659 349.3256855 469.75647354 350.83203316 C468.43462051 351.6861982 468.43462051 351.6861982 467.08606339 352.55761909 C462.15602291 355.48734584 457.1372331 358.21130474 452.05725479 360.87109566 C443.61999472 365.35049635 435.23183592 369.8911952 426.93225479 374.62109566 C418.36270968 379.49739896 409.75625611 384.30224705 401.11975479 389.05859566 C400.20802002 389.56080132 400.20802002 389.56080132 399.27786636 390.07315254 C396.17741333 391.78066696 393.07646527 393.48727978 389.97522354 395.19336128 C383.85439255 398.56085792 377.73687138 401.93435765 371.61975479 405.30859566 C371.01961563 405.63960274 370.41947647 405.97060982 369.80115128 406.31164742 C356.59947103 413.59395618 343.42060695 420.91717262 330.24475479 428.24609566 C315.21719114 436.60501287 300.18086014 444.94731475 285.11853409 453.24341011 C279.01509937 456.60630465 272.91853144 459.98084219 266.83459854 463.37890816 C265.62105953 464.05599625 264.4075179 464.73307965 263.19397354 465.41015816 C260.93580238 466.67027342 258.6796157 467.93372766 256.42444229 469.19922066 C254.37193375 470.3449263 252.31328681 471.47971566 250.24817276 472.60254097 C248.23418706 473.70465052 246.23811398 474.84009774 244.26086807 476.00683784 C236.89262844 480.1320865 230.66527426 481.72971099 222.24475479 480.24609566 C218.15563895 478.7925696 214.58094046 476.79187553 210.86975479 474.55859566 C209.84301651 473.97207222 208.81627823 473.38554878 207.75842667 472.78125191 C205.6238384 471.55924908 203.49588217 470.32559019 201.3746376 469.08056831 C197.46700848 466.79024653 193.5247681 464.56494375 189.57825089 462.3425312 C187.68068875 461.27341533 185.78519252 460.20062483 183.89172745 459.12426949 C177.05694703 455.24105679 170.16676689 451.47126647 163.24475479 447.74609566 C154.39365746 442.98276255 145.62498902 438.09243962 136.88928604 433.12109566 C130.05376209 429.24172599 123.16569138 425.47068766 116.24475479 421.74609566 C107.39365746 416.98276255 98.62498902 412.09243962 89.88928604 407.12109566 C83.05375886 403.24172416 76.16562076 399.4708226 69.24475479 395.74609566 C60.52022373 391.04892003 51.86950349 386.23866935 43.2562294 381.34082222 C35.9368765 377.18536683 28.58042812 373.10114012 21.20724869 369.04229927 C19.32571792 368.0062621 17.44491416 366.96891737 15.56433487 365.93115425 C10.39046332 363.07675909 5.2146115 360.22663452 0.02209854 357.40625191 C-1.40379102 356.62389719 -2.82958354 355.84136558 -4.25524521 355.05859566 C-5.1697142 354.56987984 -5.1697142 354.56987984 -6.10265732 354.07129097 C-12.74393199 350.4006314 -17.34865456 345.4658676 -19.75524521 338.24609566 C-19.85021965 336.45098024 -19.88617111 334.65251102 -19.88946629 332.85488796 C-19.89392413 331.72871164 -19.89838197 330.60253531 -19.9029749 329.44223243 C-19.90279054 328.19965161 -19.90260618 326.9570708 -19.90241623 325.67683601 C-19.90609292 324.36092985 -19.90976961 323.04502369 -19.91355771 321.68924159 C-19.92358271 318.02875468 -19.9272953 314.36828418 -19.92994702 310.70778549 C-19.93384859 306.76285598 -19.94342703 302.81793948 -19.95215988 298.87301826 C-19.97192848 289.34207806 -19.98199102 279.81113678 -19.99088767 270.2801812 C-19.99526994 265.79284806 -20.00063691 261.3055161 -20.00587654 256.8181839 C-20.02288924 241.90288761 -20.03738367 226.98759206 -20.04462528 212.07228756 C-20.0465352 208.20110574 -20.04845553 204.32992393 -20.05041122 200.45874214 C-20.05113683 199.01548177 -20.05113683 199.01548177 -20.0518771 197.54306462 C-20.06017836 181.95459458 -20.08551672 166.36620125 -20.1179919 150.77776472 C-20.15105527 134.77665397 -20.16907339 118.77558222 -20.17226952 102.77443713 C-20.17443529 93.78908417 -20.18319372 84.80384309 -20.2087307 75.81852341 C-20.23042784 68.16655319 -20.23849299 60.51472201 -20.22876392 52.86272452 C-20.22421632 48.9589152 -20.22613185 45.05539281 -20.24552536 41.15162277 C-20.26313748 37.57552614 -20.26217563 33.99992616 -20.24662807 30.42382439 C-20.24312469 28.52208586 -20.25929297 26.62034223 -20.27623254 24.71867591 C-20.22047014 17.31555702 -19.66804544 11.34009922 -14.30793172 5.73175651 C-9.63942282 1.6406169 -6.1661403 -0.00458108 0 0 Z " fill="#010101" transform="translate(374.75524520874023,408.75390434265137)"/>
<path d="M0 0 C49.0038766 -0.11303169 98.00772192 -0.20254796 147.01170304 -0.25532665 C152.7970275 -0.26158018 158.58235171 -0.26805179 164.36767578 -0.2746582 C165.51942998 -0.27596976 166.67118418 -0.27728131 167.85784002 -0.2786326 C186.50705411 -0.30038933 205.15619115 -0.33981236 223.80535953 -0.38576398 C242.941033 -0.43252112 262.07666611 -0.46029384 281.21239436 -0.47044247 C293.0202497 -0.47730315 304.82788721 -0.49897224 316.6356755 -0.53958233 C324.73264975 -0.56601147 332.82951139 -0.57400057 340.92652564 -0.56750689 C345.59817861 -0.56430429 350.26945093 -0.56921466 354.94103622 -0.59602737 C359.22117285 -0.62041366 363.50067395 -0.62155294 367.78084023 -0.60449447 C369.32610824 -0.60238715 370.87141639 -0.60868445 372.41660576 -0.62441591 C382.13504673 -0.71757513 390.58833799 -0.12862522 397.96904349 6.86606002 C404.02540826 13.72399203 402.79322365 23.35445363 402.68115234 31.91235352 C402.67945804 33.72646529 402.68041353 35.54058117 402.68380737 37.35469055 C402.68552335 42.25932399 402.65033804 47.16307047 402.60836363 52.06749845 C402.57076304 57.20038388 402.56732392 62.33329142 402.56021118 67.46629333 C402.54158973 77.17724717 402.49238923 86.88779396 402.43211424 96.59856886 C402.36496504 107.65775984 402.33203895 118.71697064 402.30194163 129.77631485 C402.2392877 152.51782064 402.12928877 175.25876869 402 198 C388.8 198 375.6 198 362 198 C362 146.19 362 94.38 362 41 C242.54 41 123.08 41 0 41 C0 27.47 0 13.94 0 0 Z " fill="#020202" transform="translate(451,307)"/>
<path d="M0 0 C13.53 0 27.06 0 41 0 C41 38.61 41 77.22 41 117 C42.65 117.66 44.3 118.32 46 119 C47.65604469 119.83575302 49.29882938 120.69813707 50.9296875 121.58203125 C51.87755127 122.09491699 52.82541504 122.60780273 53.80200195 123.13623047 C54.81609131 123.68939941 55.83018066 124.24256836 56.875 124.8125 C57.94000732 125.3914502 59.00501465 125.97040039 60.10229492 126.56689453 C68.16060097 130.96211792 76.16365571 135.4499238 84.14453125 139.98388672 C92.65239025 144.81567047 101.19931972 149.57501669 109.76123047 154.31030273 C115.57088411 157.52631619 121.36348189 160.76809219 127.12890625 164.0625 C128.27246582 164.7129126 129.41602539 165.3633252 130.59423828 166.03344727 C132.77761052 167.27692033 134.95716703 168.52712406 137.13232422 169.78491211 C138.10830566 170.33928955 139.08428711 170.89366699 140.08984375 171.46484375 C140.94441162 171.955896 141.79897949 172.44694824 142.67944336 172.95288086 C145.18335498 174.274201 145.18335498 174.274201 149 174 C151.5672668 172.92502034 151.5672668 172.92502034 154.26953125 171.39453125 C155.8321167 170.54749634 155.8321167 170.54749634 157.42626953 169.68334961 C158.54372559 169.06596924 159.66118164 168.44858887 160.8125 167.8125 C161.9852157 167.1720603 163.15823434 166.53217504 164.33154297 165.89282227 C172.75362475 161.29074382 181.11257474 156.57664555 189.45239258 151.82739258 C196.25406646 147.96087601 203.11047246 144.20743397 210 140.5 C218.00801087 136.1890945 225.96382314 131.79869599 233.875 127.3125 C235.29099487 126.51283813 235.29099487 126.51283813 236.7355957 125.69702148 C241.2777336 123.12831788 245.80230595 120.53510684 250.30078125 117.890625 C251.12787598 117.41197998 251.9549707 116.93333496 252.80712891 116.44018555 C254.35223691 115.54592457 255.89021895 114.63919293 257.41943359 113.71801758 C259.48046875 112.53515625 259.48046875 112.53515625 263 111 C265.74498284 111.82595305 266.80624037 112.72510231 268.46044922 115.07202148 C268.90404785 115.91321533 269.34764648 116.75440918 269.8046875 117.62109375 C270.30613281 118.55759766 270.80757812 119.49410156 271.32421875 120.45898438 C271.83597656 121.44189453 272.34773438 122.42480469 272.875 123.4375 C273.63103516 124.8596582 273.63103516 124.8596582 274.40234375 126.31054688 C275.42038482 128.22555763 276.43438821 130.14272034 277.44433594 132.06201172 C279.91749086 136.73275032 282.45785104 141.36654602 285 146 C264.75 157.25 244.5 168.5 224.25 179.75 C223.13584717 180.3689917 222.02169434 180.9879834 220.8737793 181.62573242 C218.62790974 182.87340161 216.38197893 184.12096054 214.13598633 185.3684082 C208.44727836 188.52815977 202.75970869 191.68993003 197.07421875 194.85546875 C186.23180249 200.89042743 175.38249527 206.91254621 164.5 212.875 C163.57985107 213.38119873 162.65970215 213.88739746 161.71166992 214.40893555 C160.44673706 215.09983276 160.44673706 215.09983276 159.15625 215.8046875 C158.42212891 216.20671387 157.68800781 216.60874023 156.93164062 217.02294922 C151.75276068 219.64249896 146.67160365 219.75936669 141 219 C136.65354582 217.37616816 132.75185983 215.14603029 128.75 212.8125 C127.02509174 211.84488651 125.30018275 210.87727432 123.57521057 209.90977478 C121.82668178 208.92326463 120.08495746 207.92574176 118.34521484 206.92382812 C115.28800478 205.16563112 112.21995751 203.42919943 109.14453125 201.703125 C105.39101273 199.59393657 101.6442909 197.47339681 97.90234375 195.34375 C91.50032901 191.70705146 85.06442973 188.1324182 78.625 184.5625 C68.88653694 179.1623877 59.1599191 173.74203704 49.4519043 168.28735352 C43.88759786 165.16414505 38.31029593 162.06690903 32.71484375 159 C30.88278446 157.99285951 29.0509754 156.98526537 27.21923828 155.97753906 C25.49232861 155.03008136 23.76184332 154.08914993 22.03125 153.1484375 C3.17638015 142.77254549 3.17638015 142.77254549 0.40985966 134.16357803 C-0.08128709 131.57089956 -0.12276397 129.14769946 -0.12025452 126.50775146 C-0.12162918 125.39158447 -0.12300385 124.27541748 -0.12442017 123.12542725 C-0.12082489 121.90551086 -0.11722961 120.68559448 -0.11352539 119.42871094 C-0.11367142 118.14065552 -0.11381744 116.8526001 -0.1139679 115.5255127 C-0.11425477 111.99692251 -0.10837583 108.46836633 -0.10139394 104.93978405 C-0.09514207 101.25089376 -0.09455515 97.56200268 -0.09336853 93.87310791 C-0.09026063 86.88920485 -0.08205451 79.90531745 -0.07201904 72.92142129 C-0.06084113 64.96984958 -0.05534322 57.01827712 -0.05032361 49.0666995 C-0.03987146 32.71112239 -0.02153269 16.35556685 0 0 Z " fill="#010101" transform="translate(457,555)"/>
</svg>
