<?xml version="1.0" standalone="no"?>
<!DOCTYPE svg PUBLIC "-//W3C//DTD SVG 20010904//EN"
 "http://www.w3.org/TR/2001/REC-SVG-20010904/DTD/svg10.dtd">
<svg version="1.0" xmlns="http://www.w3.org/2000/svg"
 width="41.000000pt" height="53.000000pt" viewBox="0 0 41.000000 53.000000"
 preserveAspectRatio="xMidYMid meet">

<g transform="translate(0.000000,53.000000) scale(0.100000,-0.100000)"
fill="#0f58c3" stroke="none">
<path d="M86 414 c-3 -9 -6 -76 -6 -149 0 -164 1 -165 105 -165 112 0 105 -12
105 171 l0 159 -99 0 c-81 0 -100 -3 -105 -16z m179 -14 c4 -6 -23 -10 -75
-10 -52 0 -79 4 -75 10 8 13 142 13 150 0z m5 -130 l0 -90 -80 0 -80 0 0 90 0
90 80 0 80 0 0 -90z m-5 -130 c-3 -5 -40 -10 -81 -10 -43 0 -74 4 -74 10 0 6
34 10 81 10 51 0 78 -4 74 -10z"/>
<path d="M171 284 c-7 -16 -7 -24 0 -24 5 0 13 -10 18 -22 7 -21 8 -20 18 8 7
23 6 32 -8 45 -16 16 -18 15 -28 -7z"/>
</g>
</svg>
