<?xml version="1.0" standalone="no"?>
<!DOCTYPE svg PUBLIC "-//W3C//DTD SVG 20010904//EN"
 "http://www.w3.org/TR/2001/REC-SVG-20010904/DTD/svg10.dtd">
<svg version="1.0" xmlns="http://www.w3.org/2000/svg"
 width="41.000000pt" height="48.000000pt" viewBox="0 0 41.000000 48.000000"
 preserveAspectRatio="xMidYMid meet">

<g transform="translate(0.000000,48.000000) scale(0.100000,-0.100000)"
fill="#0f58c3" stroke="none">
<path d="M132 408 c-7 -7 -12 -26 -12 -43 l0 -31 90 4 90 4 0 -92 0 -92 -90 4
-91 4 3 -35 3 -36 100 0 100 0 3 150 c2 132 1 151 -15 162 -22 17 -165 17
-181 1z m168 -28 c0 -6 -32 -10 -75 -10 -43 0 -75 4 -75 10 0 6 32 10 75 10
43 0 75 -4 75 -10z m-5 -260 c-8 -13 -145 -13 -145 0 0 6 32 10 76 10 47 0 73
-4 69 -10z"/>
<path d="M137 293 c-4 -3 -2 -12 4 -20 9 -10 4 -13 -30 -13 -22 0 -41 -4 -41
-10 0 -5 19 -10 41 -10 35 0 39 -2 30 -14 -23 -27 10 -30 37 -3 l26 26 -24 26
c-25 26 -32 29 -43 18z"/>
</g>
</svg>
