<?xml version="1.0" standalone="no"?>
<!DOCTYPE svg PUBLIC "-//W3C//DTD SVG 20010904//EN"
 "http://www.w3.org/TR/2001/REC-SVG-20010904/DTD/svg10.dtd">
<svg version="1.0" xmlns="http://www.w3.org/2000/svg"
 width="40.000000pt" height="49.000000pt" viewBox="0 0 40.000000 49.000000"
 preserveAspectRatio="xMidYMid meet">

<g transform="translate(0.000000,49.000000) scale(0.100000,-0.100000)"
fill="#0f58c3" stroke="none">
<path d="M88 275 l3 -95 -25 0 c-23 0 -26 -4 -26 -33 0 -18 5 -38 12 -45 17
-17 229 -17 246 0 8 8 12 54 12 140 l0 128 -112 0 -113 0 3 -95z m192 -40 c0
-96 -3 -115 -15 -115 -10 0 -15 10 -15 30 l0 30 -70 0 -70 0 0 78 c0 43 3 82
7 85 3 4 42 7 85 7 l78 0 0 -115z m-60 -100 c0 -12 -15 -15 -75 -15 -60 0 -75
3 -75 15 0 12 15 15 75 15 60 0 75 -3 75 -15z"/>
<path d="M130 300 c0 -5 20 -10 45 -10 25 0 45 5 45 10 0 6 -20 10 -45 10 -25
0 -45 -4 -45 -10z"/>
<path d="M240 300 c0 -5 5 -10 10 -10 6 0 10 5 10 10 0 6 -4 10 -10 10 -5 0
-10 -4 -10 -10z"/>
<path d="M137 264 c-16 -17 -4 -24 39 -24 32 0 44 4 42 13 -5 13 -69 22 -81
11z"/>
<path d="M240 250 c0 -5 5 -10 10 -10 6 0 10 5 10 10 0 6 -4 10 -10 10 -5 0
-10 -4 -10 -10z"/>
</g>
</svg>
