<?xml version="1.0" standalone="no"?>
<!DOCTYPE svg PUBLIC "-//W3C//DTD SVG 20010904//EN"
 "http://www.w3.org/TR/2001/REC-SVG-20010904/DTD/svg10.dtd">
<svg version="1.0" xmlns="http://www.w3.org/2000/svg"
 width="35.000000pt" height="46.000000pt" viewBox="0 0 35.000000 46.000000"
 preserveAspectRatio="xMidYMid meet">

<g transform="translate(0.000000,46.000000) scale(0.100000,-0.100000)"
fill="#0f58c3" stroke="none">
<path d="M80 380 c-11 -11 -20 -27 -20 -35 0 -22 27 -18 33 5 5 19 12 21 89
18 l83 -3 0 -130 0 -130 -87 -3 c-83 -3 -88 -2 -88 18 0 11 -7 20 -15 20 -21
0 -19 -33 3 -53 14 -13 39 -17 104 -17 118 0 118 0 118 168 0 160 -2 162 -122
162 -65 0 -81 -3 -98 -20z"/>
<path d="M42 288 c7 -20 58 -23 58 -4 0 11 -10 16 -31 16 -20 0 -29 -4 -27
-12z"/>
<path d="M147 293 c-17 -17 -6 -83 19 -112 29 -35 49 -39 58 -14 8 19 -9 32
-33 26 -11 -3 -21 5 -30 23 -10 23 -10 29 3 36 19 11 21 48 3 48 -8 0 -17 -3
-20 -7z"/>
<path d="M47 244 c-15 -15 -6 -24 24 -24 20 0 29 4 27 13 -5 14 -40 21 -51 11z"/>
<path d="M40 180 c0 -5 14 -10 30 -10 17 0 30 5 30 10 0 6 -13 10 -30 10 -16
0 -30 -4 -30 -10z"/>
</g>
</svg>
