<?xml version="1.0" standalone="no"?>
<!DOCTYPE svg PUBLIC "-//W3C//DTD SVG 20010904//EN"
 "http://www.w3.org/TR/2001/REC-SVG-20010904/DTD/svg10.dtd">
<svg version="1.0" xmlns="http://www.w3.org/2000/svg"
 width="42.000000pt" height="49.000000pt" viewBox="0 0 42.000000 49.000000"
 preserveAspectRatio="xMidYMid meet">

<g transform="translate(0.000000,49.000000) scale(0.100000,-0.100000)"
fill="#0f58c3" stroke="none">
<path d="M119 387 c-48 -32 -71 -81 -66 -140 7 -79 78 -137 166 -137 32 0 39
-3 35 -15 -9 -23 10 -18 36 10 l24 26 -26 26 c-27 27 -60 24 -37 -3 9 -12 5
-14 -25 -14 -120 0 -187 109 -121 196 36 47 90 62 140 38 20 -9 46 -31 56 -48
23 -38 25 -94 4 -103 -21 -7 -27 0 -34 43 -11 67 -80 94 -125 48 -23 -22 -20
-80 4 -104 22 -22 69 -27 88 -8 9 9 15 9 24 0 34 -34 88 2 88 59 0 82 -67 149
-150 149 -32 0 -58 -7 -81 -23z m109 -89 c15 -15 15 -51 0 -66 -18 -18 -56
-14 -68 7 -14 27 -13 37 6 55 18 19 45 21 62 4z"/>
</g>
</svg>
