<?xml version="1.0" encoding="UTF-8"?>
<svg version="1.1" xmlns="http://www.w3.org/2000/svg" width="512" height="512">
<path d="M0 0 C0.94354741 -0.00706559 1.88709482 -0.01413118 2.85923457 -0.02141088 C4.40940615 -0.01778826 4.40940615 -0.01778826 5.99089432 -0.01409245 C7.64139278 -0.02194746 7.64139278 -0.02194746 9.32523465 -0.02996117 C13.02544944 -0.04500569 16.72552649 -0.04566731 20.42576981 -0.04633427 C23.07345029 -0.05395279 25.72111908 -0.06233066 28.36879349 -0.07155704 C35.5713428 -0.09440754 42.77386265 -0.10232778 49.97644329 -0.10738349 C54.47450258 -0.11064062 58.97255331 -0.11716322 63.47060776 -0.12438488 C75.92652867 -0.1439513 88.38244163 -0.16035512 100.83837891 -0.16326141 C102.03403199 -0.16354277 102.03403199 -0.16354277 103.25383969 -0.16382981 C104.86973715 -0.16419606 106.48563461 -0.16455975 108.10153207 -0.16492092 C109.30472018 -0.16519514 109.30472018 -0.16519514 110.53221512 -0.16547489 C111.33532062 -0.16565544 112.13842612 -0.16583599 112.96586815 -0.16602201 C125.9774014 -0.16956322 138.9887691 -0.19658202 152.00024495 -0.23397278 C165.36168571 -0.27206166 178.72304435 -0.29141893 192.08454061 -0.29172093 C199.58543868 -0.29230539 207.08613931 -0.30078984 214.58698654 -0.32971859 C220.97451957 -0.35424039 227.36178314 -0.36151019 233.74935052 -0.34647106 C237.00722477 -0.33930499 240.26445676 -0.34287094 243.52229309 -0.36288166 C247.05802768 -0.38327512 250.59238475 -0.37282774 254.12810135 -0.35466862 C255.15262618 -0.36786858 256.17715101 -0.38106855 257.23272204 -0.39466852 C264.64078002 -0.30778385 269.44731399 1.59597288 274.83569026 6.70272928 C279.19443664 11.51919789 280.83282544 16.5773511 280.62205887 23.04912472 C279.62588309 30.18628283 276.81031431 35.6198856 271.19237137 40.10381222 C266.65114051 42.89841582 262.80860687 43.51985656 257.50365067 43.57890987 C256.50769127 43.59397831 256.50769127 43.59397831 255.49161148 43.60935116 C253.31114389 43.64008171 251.13079851 43.65718961 248.95018387 43.67412472 C247.43274263 43.69284456 245.9153117 43.71241859 244.397892 43.73281002 C240.41463185 43.78405112 236.43133799 43.82371958 232.44792557 43.86095333 C228.37893258 43.90104343 224.31007889 43.95211289 220.24119949 44.00224972 C212.26538333 44.09891396 204.28949801 44.18334893 196.31346512 44.26006222 C196.72406677 44.87095699 197.13466843 45.48185177 197.55771255 46.11125851 C198.0970694 46.91639889 198.63642624 47.72153927 199.19212723 48.55107784 C199.72647888 49.34759762 200.26083054 50.14411739 200.81137466 50.96477413 C205.9963552 58.88774842 209.48775342 67.16578943 212.02830887 76.22881222 C212.36276016 77.39428585 212.36276016 77.39428585 212.70396805 78.58330441 C213.24574051 80.47405392 213.78036364 82.36684962 214.31346512 84.26006222 C214.92210403 84.26370785 215.53074295 84.26735348 216.15782547 84.27110958 C222.51770488 84.31306207 228.87687119 84.38249675 235.23631668 84.46758175 C237.60668668 84.49573111 239.9771495 84.51697551 242.34764481 84.53105831 C245.76381618 84.55257073 249.17887867 84.59926616 252.59471512 84.65068722 C254.17331314 84.65253017 254.17331314 84.65253017 255.78380203 84.65441036 C263.81275213 84.81266166 269.32178962 86.3348684 275.12596512 92.01006222 C279.12267711 97.94803431 281.52132384 103.97173287 280.31346512 111.26006222 C278.17446558 118.73382845 274.16560106 123.40209411 267.52312088 127.31459713 C264.92918445 128.42448781 262.99494268 128.53706998 260.17772293 128.57890987 C259.15696671 128.59877956 258.13621048 128.61864925 257.08452225 128.63912106 C255.98960464 128.65067226 254.89468704 128.66222347 253.76659012 128.67412472 C252.64025162 128.69349087 251.51391312 128.71285702 250.35344315 128.73281002 C246.75686077 128.79257743 243.16024635 128.83898041 239.56346512 128.88506222 C237.1246491 128.92324456 234.68584652 128.96229644 232.24705887 129.00224972 C226.26931368 129.09827671 220.29148746 129.1833327 214.31346512 129.26006222 C213.99603348 130.39153683 213.67860184 131.52301144 213.35155106 132.68877316 C204.78312022 162.80752278 187.17066906 186.79609066 159.57274246 202.1824255 C144.74269026 210.00255651 128.83749669 213.30927442 112.25096512 214.38506222 C111.00379715 214.47142941 109.75662918 214.55779659 108.47166824 214.64678097 C105.41929413 214.85728953 102.36663951 215.06155961 99.31346512 215.26006222 C100.0064536 215.94936353 100.69944208 216.63866484 101.41343021 217.34885406 C118.27515157 234.12177594 135.12533106 250.90622448 151.96347141 267.70281982 C160.10653775 275.82526129 168.25331265 283.94391675 176.4089241 292.05376339 C183.51736873 299.12233829 190.61875336 306.1979171 197.71175069 313.28199381 C201.46765707 317.03268575 205.22700343 320.77977727 208.99482536 324.51850224 C212.54189618 328.03840219 216.07944352 331.56759922 219.6099472 335.10411358 C220.90651162 336.39957853 222.20650192 337.69162527 223.51016808 338.97994328 C225.29205412 340.74187617 227.06111016 342.51578852 228.8275795 344.29315853 C229.34411899 344.79804666 229.86065849 345.30293479 230.3928507 345.82312256 C235.08970687 350.59852598 237.73098795 355.77850562 237.81346512 362.57256222 C237.60090866 369.29119463 235.46711337 375.25823073 230.52830887 379.95928097 C225.76267286 383.49050595 221.93827457 384.44309694 216.12596512 384.57256222 C215.03928543 384.60994503 213.95260574 384.64732784 212.83299637 384.68584347 C204.70041932 383.70199119 199.34813895 378.87997868 193.7726326 373.23389339 C193.05808135 372.52628768 192.34353011 371.81868196 191.60732579 371.08963364 C189.22734139 368.7278727 186.86182304 366.35214865 184.49608231 363.97612667 C182.78794748 362.27505258 181.07897176 360.57482252 179.36922073 358.87537289 C175.21684436 354.74314879 171.07392064 350.60159876 166.9356918 346.45521841 C163.57066634 343.08388128 160.20192534 339.71629968 156.83053207 336.35133076 C156.34985803 335.87155837 155.86918398 335.39178598 155.37394406 334.89747503 C154.39730687 333.92268913 153.42066404 332.94790886 152.44401565 331.97313418 C143.2958436 322.84152315 134.16033438 313.69732657 125.02887478 304.54900774 C116.68297607 296.18841314 108.32250495 287.8425708 99.95485124 279.50375436 C91.35237837 270.93070647 82.75919331 262.34845369 74.17619061 253.75591153 C73.20451945 252.78321786 72.23283433 251.81053813 71.2611351 250.83787251 C70.78310266 250.35936368 70.30507023 249.88085485 69.81255196 249.38784576 C66.45178563 246.02491942 63.0850898 242.66800147 59.71595383 239.31346226 C55.17666196 234.79356398 50.6506945 230.26059378 46.13339996 225.71870899 C44.47527611 224.05557917 42.81289549 222.39668063 41.14594269 220.74240017 C38.86763669 218.48004639 36.60535433 216.20276638 34.34636307 213.92114925 C33.68644639 213.2730683 33.02652971 212.62498735 32.34661555 211.95726758 C27.33356434 206.84198673 24.04151039 201.37672999 22.78221512 194.25615597 C22.87949362 186.29147846 24.45320944 181.18532371 30.06346512 175.44756222 C38.38670777 169.84537966 46.15734546 169.83005858 55.83684731 169.84937191 C58.30707907 169.85389348 60.77661059 169.83972628 63.24676895 169.8209753 C68.49815655 169.78435877 73.74946877 169.77052504 79.00096512 169.76006222 C85.07605498 169.74791399 91.15080033 169.72600205 97.22573662 169.68006039 C99.63677188 169.66666454 102.04735165 169.67062962 104.45840836 169.67546749 C123.72445132 169.60621691 139.92051756 164.73402004 153.75877762 150.94756222 C158.79078013 145.65395713 162.23944132 140.56707188 165.47752762 134.00615597 C166.01071609 132.92906368 166.54390457 131.8519714 167.09325027 130.74223995 C167.49592117 129.9231213 167.89859207 129.10400265 168.31346512 128.26006222 C166.9871331 128.26697567 166.9871331 128.26697567 165.6340065 128.27402878 C144.10898446 128.38449875 122.58401136 128.46721438 101.05876541 128.51912308 C90.6492583 128.54489364 80.23994053 128.58002232 69.83055496 128.63725948 C60.75666011 128.68712947 51.68290241 128.71936158 42.60887432 128.73050469 C37.80514357 128.73701734 33.00180512 128.75230007 28.19820023 128.7887125 C23.67391324 128.82272878 19.15017901 128.83310383 14.62577629 128.82560062 C12.968172 128.82697266 11.31054864 128.83687178 9.65305519 128.85608959 C0.07556979 128.96165977 -6.97431408 128.75342208 -14.18687057 121.81721115 C-18.58375535 117.03655372 -20.20552095 111.93128163 -19.99512863 105.47099972 C-18.99895285 98.33384161 -16.18338407 92.90023883 -10.56544113 88.41631222 C-5.892272 85.54051583 -2.01762239 85.01158507 3.44452286 85.01955318 C4.15116599 85.01784433 4.85780912 85.01613549 5.58586568 85.01437485 C7.94739934 85.01108757 10.3086472 85.02207093 12.67015457 85.03301144 C14.36545174 85.03357572 16.06074941 85.03325866 17.7560463 85.03212643 C22.35481995 85.03155257 26.95348929 85.04331233 31.5522387 85.05727434 C36.3595389 85.06977609 41.16684148 85.07095176 45.97415543 85.07332516 C55.07591557 85.07954155 64.17762768 85.09595455 73.27936667 85.11602414 C83.64203568 85.13837815 94.00470698 85.14937532 104.36739409 85.15941501 C125.68277791 85.18032062 146.99811849 85.21549973 168.31346512 85.26006222 C167.09999917 82.89036392 165.87596286 80.52716671 164.64549637 78.16631222 C164.30844681 77.50534542 163.97139725 76.84437862 163.62413406 76.16338253 C156.00422853 61.62887028 143.85676838 53.06004643 128.74705887 47.30303097 C120.25598279 44.72383038 112.23210134 43.97039314 103.38133621 44.00469112 C102.23205139 44.00107067 101.08276657 43.99745022 99.89865494 43.99372005 C97.41990193 43.98686178 94.94113395 43.98431387 92.46237183 43.98566723 C88.5358938 43.98663732 84.60968585 43.97363441 80.68324661 43.95668697 C69.52550726 43.90989395 58.3677828 43.88571576 47.20994949 43.87920284 C40.37075565 43.87504256 33.53185421 43.84993996 26.69275665 43.81387615 C24.09251112 43.804087 21.49222631 43.80174133 18.89196777 43.80704784 C15.25660281 43.81412244 11.62208946 43.79682857 7.98680496 43.77422237 C6.38440712 43.78648106 6.38440712 43.78648106 4.7496376 43.79898739 C-3.26012175 43.71050789 -8.71266661 42.16784452 -14.49903488 36.51006222 C-18.49574687 30.57209012 -20.89439361 24.54839157 -19.68653488 17.26006222 C-17.54843714 9.78944689 -13.53514393 5.08165602 -6.86811519 1.20185322 C-4.39878817 0.1358416 -2.68175302 0.0064247 0 0 Z " fill="#000000" transform="translate(125.6865348815918,63.7399377822876)"/>
</svg>
