<?xml version="1.0" standalone="no"?>
<!DOCTYPE svg PUBLIC "-//W3C//DTD SVG 20010904//EN"
 "http://www.w3.org/TR/2001/REC-SVG-20010904/DTD/svg10.dtd">
<svg version="1.0" xmlns="http://www.w3.org/2000/svg"
 width="51.000000pt" height="58.000000pt" viewBox="0 0 51.000000 58.000000"
 preserveAspectRatio="xMidYMid meet">

<g transform="translate(0.000000,58.000000) scale(0.100000,-0.100000)"
fill="#0f58c3" stroke="none">
<path d="M90 395 c0 -24 5 -35 15 -35 8 0 15 9 15 20 0 13 7 20 20 20 11 0 20
7 20 15 0 10 -11 15 -35 15 -33 0 -35 -2 -35 -35z"/>
<path d="M320 415 c0 -8 9 -15 20 -15 13 0 20 -7 20 -20 0 -11 7 -20 15 -20
10 0 15 11 15 35 0 33 -2 35 -35 35 -24 0 -35 -5 -35 -15z"/>
<path d="M137 383 c-4 -3 -7 -24 -7 -45 l0 -38 45 0 45 0 0 45 0 45 -38 0
c-21 0 -42 -3 -45 -7z m63 -38 c0 -20 -5 -25 -25 -25 -18 0 -25 5 -25 18 0 24
8 32 32 32 13 0 18 -7 18 -25z"/>
<path d="M260 346 l0 -46 46 0 45 0 -3 43 c-3 42 -3 42 -45 45 l-43 3 0 -45z
m68 -3 c3 -19 -1 -23 -22 -23 -21 0 -26 5 -26 26 0 21 4 25 23 22 14 -2 23
-11 25 -25z"/>
<path d="M132 218 c3 -43 3 -43 46 -46 l42 -3 0 45 0 46 -46 0 -45 0 3 -42z
m68 -4 c0 -21 -4 -25 -22 -22 -15 2 -24 11 -26 26 -3 18 1 22 22 22 21 0 26
-5 26 -26z"/>
<path d="M260 251 c0 -5 6 -12 13 -14 9 -4 8 -8 -3 -17 -11 -9 -12 -13 -2 -17
6 -2 12 -12 12 -20 0 -11 10 -6 30 16 28 29 29 33 15 48 -19 18 -33 10 -16
-10 9 -11 8 -17 -4 -27 -9 -7 -19 -10 -22 -6 -4 4 -1 11 6 16 12 7 12 11 -2
24 -18 18 -27 20 -27 7z"/>
<path d="M90 165 c0 -33 2 -35 35 -35 37 0 48 18 16 27 -11 3 -21 13 -24 24
-9 32 -27 21 -27 -16z"/>
<path d="M360 180 c0 -13 -7 -20 -20 -20 -11 0 -20 -7 -20 -15 0 -10 11 -15
35 -15 33 0 35 2 35 35 0 24 -5 35 -15 35 -8 0 -15 -9 -15 -20z"/>
</g>
</svg>
