<?xml version="1.0" encoding="UTF-8"?>
<svg version="1.1" xmlns="http://www.w3.org/2000/svg" width="512" height="512">
<path d="M0 0 C6.43181829 4.58020734 12.31280827 9.81971847 18.20654297 15.06103516 C34.24479308 29.29865803 50.91654702 38.69476803 71.35126305 45.25737 C73.57993354 45.9737976 75.80478074 46.70117298 78.02900696 47.43127441 C84.34237516 49.50152338 90.66197585 51.55241576 96.98364258 53.59716797 C100.87945847 54.85810059 104.77117084 56.13110276 108.66077614 57.41105652 C110.1274465 57.89092602 111.59563977 58.36616997 113.06543541 58.83638 C125.46969019 62.80504833 136.48357921 66.89611949 143.50390625 78.546875 C147.27432258 86.2716304 148.69308119 93.18363484 148.6640625 101.76953125 C148.66181168 102.56239029 148.65956085 103.35524933 148.65724182 104.1721344 C148.57637047 112.49899704 147.85618338 120.71294945 146.94140625 128.984375 C146.85565338 129.78013947 146.76990051 130.57590393 146.68154907 131.39578247 C139.57268427 196.73904165 125.31005761 264.14748655 94.48535156 322.67382812 C93.45044304 324.64890728 92.44126659 326.63590068 91.43359375 328.625 C79.79475472 351.38527899 65.32717398 372.18622231 47.50390625 390.546875 C46.90320313 391.17335938 46.3025 391.79984375 45.68359375 392.4453125 C37.15282079 401.31595689 28.58263032 409.45801166 18.50390625 416.546875 C17.92318359 416.96130859 17.34246094 417.37574219 16.74414062 417.80273438 C0.93535733 429.02680071 -17.414313 440.58043031 -37.55859375 438.171875 C-57.00858677 433.92417538 -75.69211231 420.3297455 -90.49609375 407.546875 C-91.264375 406.88816406 -92.03265625 406.22945313 -92.82421875 405.55078125 C-103.94335845 395.77669877 -114.5054484 385.32606275 -123.49609375 373.546875 C-123.90359863 373.02109863 -124.31110352 372.49532227 -124.73095703 371.95361328 C-177.49776985 303.61236754 -198.35631615 214.22379558 -207.80859375 127.421875 C-207.89603851 126.63244507 -207.98348328 125.84301514 -208.07357788 125.02966309 C-210.1108472 106.42365871 -211.36481022 89.34265617 -200.80859375 72.921875 C-193.66729582 65.58756902 -184.78237768 62.57119391 -175.26793861 59.49655342 C-172.86891345 58.72116353 -170.47597102 57.92902264 -168.08378601 57.13279724 C-162.99697971 55.44319398 -157.90308733 53.77562593 -152.80859375 52.109375 C-146.91364872 50.17847731 -141.02196711 48.23822291 -135.13539696 46.28193474 C-132.80441457 45.5114327 -130.46944397 44.75412865 -128.13386536 43.99769592 C-106.57552688 36.91810492 -90.45039578 24.6818417 -73.5 9.94140625 C-50.53388038 -9.73076792 -26.89380797 -18.43914561 0 0 Z M38.54956055 147.01293945 C37.59034239 147.98177133 36.62996634 148.94945795 35.66853333 149.91609192 C33.61350178 151.98683615 31.56647333 154.06506171 29.52539635 156.14956093 C26.29877909 159.44412683 23.05287203 162.71923395 19.8039093 165.991745 C12.91809745 172.9328747 6.05375194 179.89505659 -0.80859375 186.859375 C-8.23531972 194.39625863 -15.66567107 201.92935417 -23.12054318 209.43841523 C-26.3513885 212.69420017 -29.56965125 215.96179054 -32.77886832 219.23889029 C-34.77176551 221.26898553 -36.77487934 223.28875612 -38.78096199 225.30581474 C-40.15558048 226.69430846 -41.51755726 228.0952816 -42.87918091 229.496521 C-43.69626022 230.31395279 -44.51333954 231.13138458 -45.35517883 231.97358704 C-46.06248799 232.69199925 -46.76979715 233.41041147 -47.49853992 234.15059376 C-49.49609375 235.546875 -49.49609375 235.546875 -51.63287163 235.37136936 C-54.13263455 234.26519935 -55.60462955 232.76789207 -57.51098633 230.80908203 C-58.28892044 230.01801056 -59.06685455 229.22693909 -59.86836243 228.41189575 C-60.70070908 227.55151703 -61.53305573 226.69113831 -62.390625 225.8046875 C-64.16851418 223.99859395 -65.94651239 222.19260772 -67.72460938 220.38671875 C-70.518928 217.53028233 -73.30981245 214.67062377 -76.09790039 211.80810547 C-78.79109432 209.04843351 -81.49647423 206.30115281 -84.203125 203.5546875 C-85.02939896 202.69835724 -85.85567291 201.84202698 -86.70698547 200.95974731 C-92.86862273 194.71997199 -97.73219634 191.15392165 -106.80859375 190.984375 C-114.44243151 191.17763672 -119.85314787 193.78364317 -125.15234375 199.2578125 C-129.84761912 205.29069539 -130.79891953 211.35902219 -130.17578125 218.82421875 C-128.43715155 225.78872967 -124.70903636 230.92904534 -119.67700195 235.89941406 C-119.10566025 236.47937134 -118.53431854 237.05932861 -117.94566345 237.65686035 C-116.07273412 239.55230893 -114.18563489 241.43283543 -112.296875 243.3125 C-110.97842693 244.63618977 -109.66049819 245.96039699 -108.34306335 247.28509521 C-105.58663378 250.05190314 -102.82289449 252.81114329 -100.05395508 255.56542969 C-96.51934965 259.08285068 -93.00549547 262.62020784 -89.49711323 266.16376114 C-86.78207965 268.90083192 -84.05536398 271.62602748 -81.32515526 274.3479538 C-80.02528197 275.64701106 -78.72920734 276.94988167 -77.43715858 278.2567215 C-67.10473477 288.8882123 -67.10473477 288.8882123 -53.4921875 294.078125 C-36.59925404 293.8717991 -25.83780017 279.03933929 -14.66625977 267.86230469 C-13.6481789 266.84722759 -12.62989758 265.83235152 -11.61143494 264.81765747 C-8.88636893 262.10130143 -6.16443467 259.38182943 -3.44339871 256.66143703 C-1.73793307 254.95668815 -0.03175488 253.25265568 1.67466927 251.54886627 C7.64166248 245.59107578 13.60611762 239.63075828 19.56811523 233.66796875 C25.1065915 228.1288896 30.65064799 222.59543903 36.19728988 217.06453776 C40.98246706 212.29245256 45.76376421 207.51650314 50.54208046 202.73754811 C53.38629338 199.89308116 56.23201177 197.05016298 59.08166313 194.21114349 C61.75627706 191.54624127 64.42600659 188.87653921 67.09213829 186.2031517 C68.52979681 184.7639578 69.97237814 183.32968666 71.41513062 181.89559937 C81.97914528 171.3047078 81.97914528 171.3047078 85.87890625 157.234375 C85.67668556 150.89103117 83.71205956 145.98548074 79.4453125 141.2734375 C74.02856616 136.21293586 69.65057756 133.60989197 62.19140625 133.171875 C51.76648722 133.59231145 45.49491374 139.8631846 38.54956055 147.01293945 Z " fill="#205c28" transform="translate(286.49609375,42.453125)"/>
</svg>
