<?xml version="1.0" standalone="no"?>
<!DOCTYPE svg PUBLIC "-//W3C//DTD SVG 20010904//EN"
 "http://www.w3.org/TR/2001/REC-SVG-20010904/DTD/svg10.dtd">
<svg version="1.0" xmlns="http://www.w3.org/2000/svg"
 width="41.000000pt" height="38.000000pt" viewBox="0 0 41.000000 38.000000"
 preserveAspectRatio="xMidYMid meet">

<g transform="translate(0.000000,38.000000) scale(0.100000,-0.100000)"
fill="#0f58c3" stroke="none">
<path d="M157 342 c-19 -21 -22 -54 -7 -83 13 -24 72 -26 94 -3 22 21 20 67
-2 87 -24 22 -65 21 -85 -1z m68 -42 c0 -18 -6 -26 -23 -28 -24 -4 -38 18 -28
44 3 9 15 14 28 12 17 -2 23 -10 23 -28z"/>
<path d="M142 211 c-50 -13 -72 -38 -72 -83 0 -38 0 -38 40 -38 29 0 40 -4 40
-15 0 -21 13 -19 35 5 16 18 16 20 -4 46 -22 27 -22 28 -28 6 -3 -15 -13 -22
-29 -22 -20 0 -24 5 -24 29 0 24 6 31 31 40 73 25 161 6 167 -37 3 -19 -1 -22
-32 -22 -25 0 -36 -4 -36 -15 0 -11 12 -15 51 -15 l50 0 -3 42 c-2 30 -10 46
-28 59 -29 21 -111 31 -158 20z"/>
</g>
</svg>
